<svg xmlns="http://www.w3.org/2000/svg" viewBox="0 0 366 366" fill="none">
  <path d="M181.5 6.65625C84.2487 6.65625 5.40625 85.4987 5.40625 182.75C5.40627 280.001 84.2487 358.812 181.5 358.812C278.751 358.813 357.594 280.001 357.594 182.75C357.594 85.4987 278.751 6.65625 181.5 6.65625ZM60.6875 95.5937L302.531 95.5937C309.907 95.5937 315.875 101.562 315.875 108.937C315.875 116.313 309.907 122.312 302.531 122.312L60.6875 122.312C53.2308 122.312 47.197 116.206 47.3125 108.75C47.4255 101.456 53.3924 95.5937 60.6875 95.5937ZM72.7538 152.161C66.64 145.003 71.7268 133.969 81.1405 133.969L281.148 133.969C290.678 133.969 295.722 145.241 289.372 152.348L216.888 233.454C208.627 242.698 204.071 254.668 204.094 267.065L204.219 333.883C204.22 334.793 203.261 335.385 202.449 334.975L155.327 311.195C154.917 310.988 154.658 310.569 154.656 310.11L154.5 266.25C154.457 254.335 150.187 242.822 142.449 233.763L72.7538 152.161Z" fill="#4f46e5"/>
</svg>
